HIERARCHY
ROOT Hips
{
    OFFSET 0.000000 0.000000 0.000000
    CHANNELS 6 Xposition Yposition Zposition Zrotation Xrotation Yrotation
    JOINT Spine
    {
        OFFSET -0.000000 7.834855 0.000000
        CHANNELS 3 Zrotation Xrotation Yrotation
        JOINT Spine1
        {
            OFFSET -0.000000 20.370804 0.000000
            CHANNELS 3 Zrotation Xrotation Yrotation
            JOINT Neck
            {
                OFFSET -0.000000 22.281744 0.000000
                CHANNELS 3 Zrotation Xrotation Yrotation
                JOINT Head
                {
                    OFFSET -0.000000 14.809786 1.910940
                    CHANNELS 3 Zrotation Xrotation Yrotation
                    End Site
                    {
                        OFFSET -0.000000 19.109402 0.000000
                    }
                }
            }
            JOINT LeftShoulder
            {
                OFFSET 3.834102 19.304329 -0.147587
                CHANNELS 3 Zrotation Xrotation Yrotation
                JOINT LeftArm
                {
                    OFFSET 8.968669 0.000000 0.000000
                    CHANNELS 3 Zrotation Xrotation Yrotation
                    JOINT LeftForeArm
                    {
                        OFFSET 30.517160 0.000000 0.000000
                        CHANNELS 3 Zrotation Xrotation Yrotation
                        JOINT LeftHand
                        {
                            OFFSET 28.564375 0.000000 0.000000
                            CHANNELS 3 Zrotation Xrotation Yrotation
                            End Site
                            {
                                OFFSET 14.332051 0.000000 0.000000
                            }
                        }
                    }
                }
            }
            JOINT RightShoulder
            {
                OFFSET -3.804374 19.304329 -0.147587
                CHANNELS 3 Zrotation Xrotation Yrotation
                JOINT RightArm
                {
                    OFFSET -8.968669 0.000000 0.000000
                    CHANNELS 3 Zrotation Xrotation Yrotation
                    JOINT RightForeArm
                    {
                        OFFSET -30.517160 0.000000 0.000000
                        CHANNELS 3 Zrotation Xrotation Yrotation
                        JOINT RightHand
                        {
                            OFFSET -28.564375 0.000000 0.000000
                            CHANNELS 3 Zrotation Xrotation Yrotation
                            End Site
                            {
                                OFFSET -14.332051 0.000000 0.000000
                            }
                        }
                    }
                }
            }
        }
    }
    JOINT LeftUpLeg
    {
        OFFSET 9.554701 0.000000 0.000000
        CHANNELS 3 Zrotation Xrotation Yrotation
        JOINT LeftLeg
        {
            OFFSET -0.000000 -41.645828 0.000000
            CHANNELS 3 Zrotation Xrotation Yrotation
            JOINT LeftFoot
            {
                OFFSET -0.000000 -37.211124 0.000000
                CHANNELS 3 Zrotation Xrotation Yrotation
                JOINT LeftToeBase
                {
                    OFFSET -0.000000 -6.210556 14.332051
                    CHANNELS 3 Zrotation Xrotation Yrotation
                    End Site
                    {
                        OFFSET -0.000000 0.000000 3.821880
                    }
                }
            }
        }
    }
    JOINT RightUpLeg
    {
        OFFSET -9.554701 0.000000 0.000000
        CHANNELS 3 Zrotation Xrotation Yrotation
        JOINT RightLeg
        {
            OFFSET -0.000000 -41.645828 0.000000
            CHANNELS 3 Zrotation Xrotation Yrotation
            JOINT RightFoot
            {
                OFFSET -0.000000 -37.211124 0.000000
                CHANNELS 3 Zrotation Xrotation Yrotation
                JOINT RightToeBase
                {
                    OFFSET -0.000000 -6.210556 14.332051
                    CHANNELS 3 Zrotation Xrotation Yrotation
                    End Site
                    {
                        OFFSET -0.000000 0.000000 3.821880
                    }
                }
            }
        }
    }
}
MOTION
Frames:    10
Frame Time:    0.010000
37.612309    89.344040    69.813599    -0.322877    -1.106605    2.243314    -2.313811    -12.795574    -0.747345    2.098704    9.994744    -0.346465    1.422525    16.523788    -1.479964    -3.317364    -2.605484    -0.780087    -0.466750    7.353518    -3.006071    -26.567690    75.243149    -56.877106    16.247942    -32.372223    13.901747    -30.406107    -31.097103    -12.800875    -1.861132    6.109564    -3.262760    -89.183769    84.549416    166.610428    -32.212067    -34.628838    -9.708703    44.799892    -28.801952    23.076847    1.150023    4.593726    0.521562    -1.209608    2.154340    0.878710    4.603703    -6.606267    12.497334    0.000000    0.000000    0.000000    -2.825923    4.176154    -0.184621    2.272013    3.877945    0.026508    -0.257669    -7.613314    -11.200807    0.000000    0.000000    0.000000    
37.600372    89.367111    69.776581    -0.427860    -1.037964    2.157232    -2.063679    -12.879587    -0.817946    1.785289    9.990501    -0.351075    1.656725    16.690153    -1.407840    -3.551727    -2.851153    -0.620578    -0.332194    7.435021    -2.865863    -27.040205    75.056595    -56.409988    16.151653    -32.334095    13.827833    -30.349289    -31.052864    -12.767378    -1.689952    6.029832    -2.826713    -88.894333    84.997978    166.185287    -31.961452    -34.502605    -9.402850    45.008308    -28.464432    23.237469    1.266856    4.484868    0.613172    -1.248352    2.195724    0.779593    4.670801    -6.554570    12.708921    0.000000    0.000000    0.000000    -2.709702    4.026610    -0.095766    2.231464    4.052841    -0.322521    0.535253    -7.982142    -11.037226    0.000000    0.000000    0.000000    
37.571938    89.375031    69.744011    -0.415964    -1.076060    2.088743    -2.149987    -12.754919    -0.698093    1.868871    9.932185    -0.315220    1.857843    16.611601    -1.474721    -3.732385    -2.803339    -0.614241    -0.215471    7.410305    -2.936049    -27.090775    75.043617    -56.488041    16.186258    -32.303169    13.898650    -30.571411    -30.979380    -12.900795    -1.678170    6.015096    -2.946673    -90.225563    84.717018    167.545044    -32.125004    -34.707523    -9.554989    44.966286    -28.741152    23.243511    1.285301    4.492706    0.736436    -1.270133    2.234430    0.776085    4.604607    -6.567351    12.544422    0.000000    0.000000    0.000000    -2.667668    4.022031    -0.019058    2.170252    4.067212    -0.243669    2.266261    -7.931130    -11.429755    0.000000    0.000000    0.000000    
37.568176    89.379349    69.749840    -0.453491    -1.007969    2.130256    -2.077509    -12.852009    -0.802977    1.793184    9.949696    -0.345757    1.780783    16.670689    -1.395875    -3.679485    -2.835396    -0.559884    -0.262807    7.399857    -2.842789    -26.789719    75.155037    -56.734798    16.261272    -32.361038    13.978572    -30.644527    -31.037916    -12.944766    -1.680506    6.044022    -2.800443    -89.428276    84.858749    166.757660    -32.013641    -34.752876    -9.408655    44.650803    -28.904522    22.994680    1.323626    4.413617    0.704883    -1.269739    2.241057    0.790129    4.635722    -6.524458    12.647040    0.000000    0.000000    0.000000    -2.613709    3.962099    -0.040922    2.144485    4.057725    -0.385108    3.692953    -7.402496    -11.420578    0.000000    0.000000    0.000000    
37.567959    89.381393    69.749382    -0.458290    -1.009125    2.125288    -2.112988    -12.852973    -0.746086    1.842994    9.982201    -0.330512    1.946453    16.594822    -1.564778    -3.874464    -2.763157    -0.666597    -0.218866    7.411882    -2.895308    -27.409304    74.960312    -56.141666    16.058773    -32.219128    13.756784    -30.472561    -30.891348    -12.824986    -1.663430    5.971008    -2.891486    -91.302643    84.561768    168.633789    -32.372765    -34.552101    -9.828079    45.458973    -28.421698    23.601137    1.331162    4.411785    0.685934    -1.277039    2.250107    0.791769    4.651900    -6.527189    12.663865    0.000000    0.000000    0.000000    -2.615795    3.974638    -0.028358    2.141353    4.028574    -0.457844    2.365467    -7.857091    -11.211641    0.000000    0.000000    0.000000    
37.576641    89.371529    69.750252    -0.407596    -1.067875    2.092290    -2.151933    -12.767572    -0.723519    1.839778    9.966341    -0.321318    1.963125    16.531517    -1.513770    -3.970793    -2.581172    -0.593907    -0.225990    7.406853    -2.892742    -27.003416    75.048203    -56.573090    16.147005    -32.277901    13.898298    -30.516607    -30.951403    -12.916820    -1.686133    5.980912    -2.869163    -90.820435    84.695473    168.119064    -32.299232    -34.492241    -9.632989    45.508881    -28.300747    23.575483    1.277513    4.476126    0.710155    -1.248964    2.286372    0.268418    4.723465    -6.483387    13.185743    0.000000    0.000000    0.000000    -2.716772    4.031577    0.042689    2.263516    3.993811    -0.583887    -0.463525    -7.458856    -10.534422    0.000000    0.000000    0.000000    
37.614761    89.337715    69.824326    -0.330387    -1.095922    2.229198    -2.278007    -12.887870    -0.825636    1.953166    10.082450    -0.361679    1.591052    16.645208    -1.436165    -3.569639    -2.652354    -0.660828    -0.366639    7.464535    -2.996650    -27.585522    74.942444    -55.860325    16.047344    -32.274254    13.666587    -30.262608    -30.983360    -12.711760    -1.825981    6.045965    -2.843214    -84.886963    85.463776    162.052399    -31.152861    -34.538536    -8.539018    44.376484    -28.531813    22.783121    1.015352    4.584242    0.538128    -1.357014    2.215844    0.547887    6.331048    -6.804571    14.551188    0.000000    0.000000    0.000000    -2.803202    4.211203    -0.225705    2.251126    3.869473    -0.365888    1.268791    -7.547608    -10.928514    0.000000    0.000000    0.000000    
37.613823    89.339561    69.832329    -0.328527    -1.106343    2.236662    -2.260914    -12.911207    -0.838822    1.875597    10.162775    -0.361279    1.691785    16.568094    -1.454181    -3.638487    -2.617466    -0.644014    -0.279423    7.383217    -2.875286    -27.626913    74.949066    -55.878185    15.989168    -32.235634    13.604642    -30.197493    -30.946388    -12.672559    -1.779593    6.106687    -3.015991    -85.232964    84.890968    162.434341    -31.451344    -34.451050    -8.962740    45.106007    -28.207148    23.319822    1.159556    4.613602    0.510025    -1.233335    2.162355    0.538412    4.827799    -6.582319    12.970608    0.000000    0.000000    0.000000    -2.814275    4.233686    -0.198596    2.245499    3.881031    -0.142631    2.164629    -7.994238    -11.611878    0.000000    0.000000    0.000000    
37.629181    89.312935    69.853683    -0.251446    -1.194478    2.255172    -2.172172    -12.703096    -1.004127    1.603942    9.942347    -0.393648    1.811409    16.881155    -1.661248    -3.853235    -2.790564    -0.802557    -0.295920    7.442329    -2.652074    -27.895918    74.823654    -55.509136    15.677104    -32.221333    13.542162    -29.874294    -30.917376    -12.705022    -1.699515    6.125090    -2.580329    -86.961365    85.318420    164.171753    -31.593214    -34.625107    -8.752079    44.267769    -28.782099    22.646402    0.973462    4.763521    0.344107    -1.297219    2.039694    -0.099337    5.717521    -6.722724    15.164121    0.000000    0.000000    0.000000    -3.082333    4.349561    0.107413    2.658595    3.914820    0.106473    0.610702    -7.745848    -11.629357    0.000000    0.000000    0.000000    
37.625580    89.311508    69.865372    -0.256453    -1.212560    2.257794    -2.298765    -12.873415    -0.834875    1.784580    10.246028    -0.352079    1.766593    16.637117    -1.543757    -3.654719    -2.663960    -0.714385    -0.197031    7.327845    -3.016035    -29.112741    74.533226    -54.388832    15.479448    -32.089523    13.341056    -29.700674    -30.790901    -12.558766    -1.827658    5.956846    -2.894293    -89.306015    84.760216    166.658569    -31.834753    -34.774883    -9.140923    44.454441    -28.930908    22.879885    1.123157    4.788490    0.329687    -1.170489    2.066270    -0.116586    3.738972    -7.060417    13.938025    0.000000    0.000000    0.000000    -3.060213    4.373009    0.108645    2.631945    3.908836    -0.022600    -0.104429    -8.086364    -11.637522    0.000000    0.000000    0.000000    
